# xmcd
# Track frame offsets:
# 150
# 16767
# 32852
# 47832
# 70455
# 84355
# 98937
# 111257
# 126505
# 144570
#
# Disc length: 2138 seconds
# Revision: 0
# Processed by: cddbd v1.4PL0 Copyright (c) Steve Scherf et al.
# Submitted via: VisiTrax 2.9.5.180 - For more info visit www.synapsa.com
#
DISCID=8b08580a
DTITLE=Steve Harr - High on thr hog
DYEAR=2000
DGENRE=
TTITLE0=High on the hog
TTITLE1=Headed for afall
TTITLE2=Dance of two lonely people
TTITLE3=Billy
TTITLE4=Southern wind blowin'
TTITLE5=Knock that rock
TTITLE6=Lightning and thunder
TTITLE7=If hell ever had a king
TTITLE8=My angel
TTITLE9=Missin' you
EXTD=
EXTT0=
EXTT1=
EXTT2=
EXTT3=
EXTT4=
EXTT5=
EXTT6=
EXTT7=
EXTT8=
EXTT9=
PLAYORDER=
